<?xml version="1.0" encoding="UTF-8" standalone="no"?>
<!-- Created with Inkscape (http://www.inkscape.org/) -->

<svg
   width="102.84245"
   height="52"
   viewBox="0 0 27.210398 13.758333"
   version="1.1"
   id="svg5"
   inkscape:version="1.1.2 (b8e25be8, 2022-02-05)"
   sodipodi:docname="WorkExperience_TekTranslation.svg"
   xmlns:inkscape="http://www.inkscape.org/namespaces/inkscape"
   xmlns:sodipodi="http://sodipodi.sourceforge.net/DTD/sodipodi-0.dtd"
   xmlns="http://www.w3.org/2000/svg"
   xmlns:svg="http://www.w3.org/2000/svg">
  <sodipodi:namedview
     id="namedview7"
     pagecolor="#505050"
     bordercolor="#ffffff"
     borderopacity="1"
     inkscape:pageshadow="0"
     inkscape:pageopacity="0"
     inkscape:pagecheckerboard="1"
     inkscape:document-units="mm"
     showgrid="false"
     units="px"
     height="52px"
     inkscape:zoom="1.0740683"
     inkscape:cx="-127.08689"
     inkscape:cy="96.362587"
     inkscape:window-width="1440"
     inkscape:window-height="653"
     inkscape:window-x="0"
     inkscape:window-y="25"
     inkscape:window-maximized="0"
     inkscape:current-layer="layer1"
     width="580px"
     fit-margin-top="0"
     fit-margin-left="0"
     fit-margin-right="0"
     fit-margin-bottom="0" />
  <defs
     id="defs2">
    <style
       id="style1646">.cls-1{fill:#fff;}.cls-2{fill:#7b42bc;fill-rule:evenodd;}</style>
    <style
       type="text/css"
       id="style4625"><![CDATA[
    .str0 {stroke:#000000;stroke-width:63}
    .str1 {stroke:#09098F;stroke-width:63}
    .fil5 {fill:none}
    .fil1 {fill:#000000}
    .fil2 {fill:#000000}
    .fil3 {fill:#4D66CC}
    .fil0 {fill:#576ECD}
    .fil4 {fill:#89A1D4}
   ]]></style>
  </defs>
  <g
     inkscape:label="Layer 1"
     inkscape:groupmode="layer"
     id="layer1"
     transform="translate(-154.99469,0.48161817)">
    <path
       style="fill:#00adef;stroke-width:0.138173"
       d="m 170.13907,2.0595379 4.93098,-0.6715485 0.002,4.7563291 -4.92863,0.028065 z m 4.92863,4.632802 0.004,4.7604751 -4.92863,-0.677615 -2.8e-4,-4.1147919 z m 0.59775,-5.3922008 6.53812,-0.95422312 V 6.0838261 l -6.53812,0.051904 z m 6.53964,5.4369688 -0.002,5.7120731 -6.53812,-0.922775 -0.009,-4.7999929 z"
       id="path148" />
    <g
       fill-rule="evenodd"
       clip-rule="evenodd"
       id="g963"
       transform="matrix(0.06391163,0,0,0.06391163,154.99469,0.23787342)">
      <path
         fill="#ffffff"
         d="M 0,0 H 192.756 V 192.756 H 0 Z"
         id="path957" />
      <path
         fill="#bb262c"
         d="M 23.095,82.887 V 97.396 H 8.504 V 82.887 Z"
         id="path959" />
      <path
         fill="#004775"
         d="M 53.583,86.8 V 83.54 H 31.817 v 3.26 h 8.968 v 22.743 h 3.749 V 86.8 Z m 19.563,3.994 c 0,-2.038 -0.733,-3.75 -2.038,-5.054 -1.386,-1.223 -3.179,-1.957 -5.543,-2.12 l -7.5,-0.081 v 26.003 h 3.668 v -11.25 h 0.978 c 1.304,0 2.283,0.082 2.853,0.408 l 0.326,0.244 c 0.896,0.652 1.957,1.875 3.261,3.668 1.304,2.039 2.201,3.344 2.527,3.832 l 1.712,2.771 0.326,0.326 h 4.402 l -1.386,-1.875 c -0.652,-0.814 -1.386,-1.957 -2.201,-3.342 -1.467,-2.445 -2.608,-4.158 -3.505,-5.137 a 12.174,12.174 0 0 0 -2.283,-1.955 c 2.936,-1.22 4.403,-3.34 4.403,-6.438 z m -4.402,-2.119 c 0.408,0.652 0.571,1.304 0.571,2.12 0,0.978 -0.326,1.875 -0.979,2.689 -0.652,0.734 -1.467,1.142 -2.445,1.305 l -0.326,0.082 -3.831,0.082 V 86.72 h 1.223 c 0.978,0 1.875,0.082 2.608,0.163 0.652,0 1.305,0.163 1.712,0.408 0.652,0.324 1.059,0.732 1.467,1.384 z m 25.84,-5.299 h -2.527 l -11.249,26.167 h 3.913 l 3.261,-7.662 h 11.004 l 3.424,7.662 h 3.832 z m -1.304,5.707 0.163,0.407 3.994,9.049 h -8.07 z m 38.802,0.733 c -1.223,-2.119 -2.854,-3.668 -4.973,-4.728 a 10.41,10.41 0 0 0 -3.506,-1.141 L 121.892,83.621 109.99,83.54 v 26.003 l 8.316,0.082 c 1.793,0 3.016,-0.082 3.586,-0.164 0.979,-0.08 2.037,-0.326 3.18,-0.732 2.689,-0.896 4.809,-2.445 6.439,-4.646 1.631,-2.283 2.445,-4.811 2.445,-7.5 a 12.993,12.993 0 0 0 -1.874,-6.767 z m -13.695,-2.935 c 1.549,0 2.691,0.082 3.506,0.163 0.814,0.082 1.711,0.326 2.771,0.815 1.713,0.733 3.016,1.875 3.994,3.342 0.979,1.468 1.387,3.18 1.387,5.136 0,2.281 -0.572,4.238 -1.795,6.031 -1.223,1.631 -2.852,2.771 -4.809,3.262 l -1.549,0.406 c -0.652,0.082 -1.793,0.164 -3.424,0.164 h -4.729 V 86.88 h 4.648 z m 33.095,-3.668 H 151.4 c -3.994,0 -7.336,1.223 -9.943,3.831 -2.609,2.445 -3.914,5.706 -3.914,9.62 0,3.75 1.305,6.928 3.914,9.455 2.607,2.527 5.869,3.75 9.781,3.75 h 0.244 c 4.076,0 7.418,-1.305 10.027,-3.832 2.607,-2.527 3.994,-5.705 3.994,-9.455 0,-3.832 -1.387,-7.01 -3.994,-9.538 -2.691,-2.527 -6.032,-3.831 -10.027,-3.831 z m 0.082,3.505 c 2.854,0 5.299,0.979 7.174,2.854 1.955,1.875 2.934,4.157 2.934,6.847 0,2.853 -0.979,5.218 -2.934,7.173 -1.875,1.875 -4.32,2.854 -7.256,2.854 -2.934,0 -5.299,-0.896 -7.254,-2.854 -1.875,-1.793 -2.854,-4.156 -2.854,-6.928 0,-2.935 0.979,-5.218 2.854,-7.092 1.955,-1.875 4.32,-2.854 7.254,-2.854 z m 31.709,2.528 v -4.239 c -1.875,-1.223 -3.83,-1.793 -6.031,-1.793 -2.283,0 -4.076,0.652 -5.543,1.875 -1.387,1.305 -2.039,2.935 -2.039,4.973 0,1.467 0.326,2.609 1.143,3.75 0.732,1.06 1.955,2.038 3.748,3.098 l 2.854,1.711 c 2.201,1.387 3.342,2.936 3.342,4.484 0,1.059 -0.326,1.875 -1.141,2.527 -0.734,0.652 -1.711,0.896 -2.934,0.896 -1.713,0 -3.262,-0.57 -4.811,-1.631 -0.652,-0.488 -1.385,-1.223 -2.119,-2.119 v 4.729 c 2.119,1.549 4.484,2.363 7.01,2.363 2.201,0 3.994,-0.652 5.463,-1.957 1.385,-1.305 2.037,-2.934 2.037,-5.135 0,-2.936 -1.549,-5.299 -4.729,-7.174 l -2.852,-1.63 c -2.445,-1.467 -3.588,-2.935 -3.588,-4.401 0,-0.897 0.326,-1.631 1.143,-2.201 0.732,-0.571 1.793,-0.815 2.934,-0.815 2.201,-0.002 4.238,0.895 6.113,2.689 z"
         id="path961" />
    </g>
    <text
       xml:space="preserve"
       style="font-style:normal;font-variant:normal;font-weight:normal;font-stretch:normal;font-size:14.1111px;line-height:1.25;font-family:'Segoe UI';-inkscape-font-specification:'Segoe UI, Normal';font-variant-ligatures:normal;font-variant-caps:normal;font-variant-numeric:normal;font-variant-east-asian:normal;fill:#808080;stroke-width:0.264583"
       x="167.0314"
       y="10.308413"
       id="text3900"><tspan
         sodipodi:role="line"
         id="tspan3898"
         style="font-style:normal;font-variant:normal;font-weight:normal;font-stretch:normal;font-size:14.1111px;font-family:'Segoe UI';-inkscape-font-specification:'Segoe UI, Normal';font-variant-ligatures:normal;font-variant-caps:normal;font-variant-numeric:normal;font-variant-east-asian:normal;fill:#808080;stroke-width:0.264583"
         x="167.0314"
         y="10.308413">|</tspan></text>
  </g>
  <style
     type="text/css"
     id="style1590">
	.st0{fill:#252F3E;}
	.st1{fill-rule:evenodd;clip-rule:evenodd;fill:#FF9900;}
</style>
  <style
     type="text/css"
     id="style2439">
	.st0{fill:url(#SVGID_1_);}
	.st1{fill:#515151;}
</style>
</svg>
